<svg width="141" height="33" viewBox="0 0 141 33" fill="none" xmlns="http://www.w3.org/2000/svg">
<path fill-rule="evenodd" clip-rule="evenodd" d="M13.2971 1.18754C14.9824 0.270821 17.0175 0.270821 18.7028 1.18754L28.473 6.50205C30.2935 7.49226 31.4267 9.39867 31.4267 11.471V21.529C31.4267 23.6013 30.2935 25.5077 28.473 26.498L18.7028 31.8125C17.0175 32.7292 14.9824 32.7292 13.2971 31.8125L3.52687 26.498C1.70645 25.5077 0.573242 23.6013 0.573242 21.529L0.573242 11.471C0.573242 9.39867 1.70645 7.49226 3.52686 6.50205L13.2971 1.18754Z" fill="#3772FF"/>
<g filter="url(#filter0_d_101_4605)">
<path fill-rule="evenodd" clip-rule="evenodd" d="M18.8612 22.1668C22.5431 22.1668 25.5278 19.1821 25.5278 15.5002C25.5278 11.8183 22.5431 8.8335 18.8612 8.8335C16.0446 8.8335 13.636 10.5801 12.6594 13.0494C12.1871 12.8891 11.6809 12.8022 11.1544 12.8022C8.56848 12.8022 6.47217 14.8986 6.47217 17.4845C6.47217 20.0704 8.56848 22.1667 11.1544 22.1667H11.1547L11.1544 22.1669H17.9896C18.0908 22.1669 18.1911 22.1587 18.2896 22.1427C18.478 22.1587 18.6686 22.1668 18.8612 22.1668ZM14.63 20.6523C14.6248 20.648 14.6195 20.6436 14.6143 20.6393C14.6041 20.6504 14.5939 20.6615 14.5837 20.6725L14.63 20.6523Z" fill="url(#paint0_linear_101_4605)"/>
</g>
<path d="M13.536 1.62676C15.0724 0.791079 16.9275 0.791079 18.4639 1.62676L28.2341 6.94127C29.8936 7.84396 30.9267 9.58185 30.9267 11.471V21.529C30.9267 23.4182 29.8936 25.156 28.2341 26.0587L18.4639 31.3732C16.9275 32.2089 15.0724 32.2089 13.536 31.3732L3.76578 26.0587C2.10628 25.156 1.07324 23.4182 1.07324 21.529V11.471C1.07324 9.58185 2.10628 7.84396 3.76578 6.94127L13.536 1.62676Z" stroke="url(#paint1_linear_101_4605)"/>
<path d="M51.16 15.908C52.104 16.084 52.88 16.556 53.488 17.324C54.096 18.092 54.4 18.972 54.4 19.964C54.4 20.86 54.176 21.652 53.728 22.34C53.296 23.012 52.664 23.54 51.832 23.924C51 24.308 50.016 24.5 48.88 24.5H41.656V7.748H48.568C49.704 7.748 50.68 7.932 51.496 8.3C52.328 8.668 52.952 9.18 53.368 9.836C53.8 10.492 54.016 11.236 54.016 12.068C54.016 13.044 53.752 13.86 53.224 14.516C52.712 15.172 52.024 15.636 51.16 15.908ZM45.016 14.66H48.088C48.888 14.66 49.504 14.484 49.936 14.132C50.368 13.764 50.584 13.244 50.584 12.572C50.584 11.9 50.368 11.38 49.936 11.012C49.504 10.644 48.888 10.46 48.088 10.46H45.016V14.66ZM48.4 21.764C49.216 21.764 49.848 21.572 50.296 21.188C50.76 20.804 50.992 20.26 50.992 19.556C50.992 18.836 50.752 18.276 50.272 17.876C49.792 17.46 49.144 17.252 48.328 17.252H45.016V21.764H48.4ZM58.3019 9.62C57.7099 9.62 57.2139 9.436 56.8139 9.068C56.4299 8.684 56.2379 8.212 56.2379 7.652C56.2379 7.092 56.4299 6.628 56.8139 6.26C57.2139 5.876 57.7099 5.684 58.3019 5.684C58.8939 5.684 59.3819 5.876 59.7659 6.26C60.1659 6.628 60.3659 7.092 60.3659 7.652C60.3659 8.212 60.1659 8.684 59.7659 9.068C59.3819 9.436 58.8939 9.62 58.3019 9.62ZM59.9579 11.204V24.5H56.5979V11.204H59.9579ZM66.7096 13.964V20.396C66.7096 20.844 66.8136 21.172 67.0216 21.38C67.2456 21.572 67.6136 21.668 68.1256 21.668H69.6856V24.5H67.5736C64.7416 24.5 63.3256 23.124 63.3256 20.372V13.964H61.7416V11.204H63.3256V7.916H66.7096V11.204H69.6856V13.964H66.7096ZM70.8062 16.1C70.8062 14.452 71.1742 12.98 71.9102 11.684C72.6622 10.372 73.6782 9.356 74.9582 8.636C76.2542 7.9 77.7022 7.532 79.3023 7.532C81.1743 7.532 82.8143 8.012 84.2223 8.972C85.6303 9.932 86.6143 11.26 87.1742 12.956H83.3103C82.9262 12.156 82.3822 11.556 81.6783 11.156C80.9903 10.756 80.1902 10.556 79.2782 10.556C78.3022 10.556 77.4302 10.788 76.6622 11.252C75.9102 11.7 75.3182 12.34 74.8862 13.172C74.4702 14.004 74.2622 14.98 74.2622 16.1C74.2622 17.204 74.4702 18.18 74.8862 19.028C75.3182 19.86 75.9102 20.508 76.6622 20.972C77.4302 21.42 78.3022 21.644 79.2782 21.644C80.1902 21.644 80.9903 21.444 81.6783 21.044C82.3822 20.628 82.9262 20.02 83.3103 19.22H87.1742C86.6143 20.932 85.6303 22.268 84.2223 23.228C82.8303 24.172 81.1903 24.644 79.3023 24.644C77.7022 24.644 76.2542 24.284 74.9582 23.564C73.6782 22.828 72.6622 21.812 71.9102 20.516C71.1742 19.22 70.8062 17.748 70.8062 16.1ZM92.9241 6.74V24.5H89.5641V6.74H92.9241ZM101.668 24.716C100.388 24.716 99.2358 24.436 98.2118 23.876C97.1878 23.3 96.3798 22.492 95.7878 21.452C95.2118 20.412 94.9238 19.212 94.9238 17.852C94.9238 16.492 95.2198 15.292 95.8118 14.252C96.4198 13.212 97.2438 12.412 98.2838 11.852C99.3238 11.276 100.484 10.988 101.764 10.988C103.044 10.988 104.204 11.276 105.244 11.852C106.284 12.412 107.1 13.212 107.692 14.252C108.3 15.292 108.604 16.492 108.604 17.852C108.604 19.212 108.292 20.412 107.668 21.452C107.06 22.492 106.228 23.3 105.172 23.876C104.132 24.436 102.964 24.716 101.668 24.716ZM101.668 21.788C102.276 21.788 102.844 21.644 103.372 21.356C103.916 21.052 104.348 20.604 104.668 20.012C104.988 19.42 105.148 18.7 105.148 17.852C105.148 16.588 104.812 15.62 104.14 14.948C103.484 14.26 102.676 13.916 101.716 13.916C100.756 13.916 99.9478 14.26 99.2918 14.948C98.6518 15.62 98.3318 16.588 98.3318 17.852C98.3318 19.116 98.6438 20.092 99.2678 20.78C99.9078 21.452 100.708 21.788 101.668 21.788ZM123.141 11.204V24.5H119.757V22.82C119.325 23.396 118.757 23.852 118.053 24.188C117.365 24.508 116.613 24.668 115.797 24.668C114.757 24.668 113.837 24.452 113.037 24.02C112.237 23.572 111.605 22.924 111.141 22.076C110.693 21.212 110.469 20.188 110.469 19.004V11.204H113.829V18.524C113.829 19.58 114.093 20.396 114.621 20.972C115.149 21.532 115.869 21.812 116.781 21.812C117.709 21.812 118.437 21.532 118.965 20.972C119.493 20.396 119.757 19.58 119.757 18.524V11.204H123.141ZM125.112 17.804C125.112 16.46 125.376 15.268 125.904 14.228C126.448 13.188 127.184 12.388 128.112 11.828C129.04 11.268 130.072 10.988 131.208 10.988C132.072 10.988 132.896 11.18 133.68 11.564C134.464 11.932 135.088 12.428 135.552 13.052V6.74H138.96V24.5H135.552V22.532C135.136 23.188 134.552 23.716 133.8 24.116C133.048 24.516 132.176 24.716 131.184 24.716C130.064 24.716 129.04 24.428 128.112 23.852C127.184 23.276 126.448 22.468 125.904 21.428C125.376 20.372 125.112 19.164 125.112 17.804ZM135.576 17.852C135.576 17.036 135.416 16.34 135.096 15.764C134.776 15.172 134.344 14.724 133.8 14.42C133.256 14.1 132.672 13.94 132.048 13.94C131.424 13.94 130.848 14.092 130.32 14.396C129.792 14.7 129.36 15.148 129.024 15.74C128.704 16.316 128.544 17.004 128.544 17.804C128.544 18.604 128.704 19.308 129.024 19.916C129.36 20.508 129.792 20.964 130.32 21.284C130.864 21.604 131.44 21.764 132.048 21.764C132.672 21.764 133.256 21.612 133.8 21.308C134.344 20.988 134.776 20.54 135.096 19.964C135.416 19.372 135.576 18.668 135.576 17.852Z" fill="#F4F5F6"/>
<defs>
<filter id="filter0_d_101_4605" x="2.47217" y="6.8335" width="27.0557" height="21.3335" filterUnits="userSpaceOnUse" color-interpolation-filters="sRGB">
<feFlood flood-opacity="0" result="BackgroundImageFix"/>
<feColorMatrix in="SourceAlpha" type="matrix" values="0 0 0 0 0 0 0 0 0 0 0 0 0 0 0 0 0 0 127 0" result="hardAlpha"/>
<feOffset dy="2"/>
<feGaussianBlur stdDeviation="2"/>
<feColorMatrix type="matrix" values="0 0 0 0 0 0 0 0 0 0 0 0 0 0 0 0 0 0 0.15 0"/>
<feBlend mode="normal" in2="BackgroundImageFix" result="effect1_dropShadow_101_4605"/>
<feBlend mode="normal" in="SourceGraphic" in2="effect1_dropShadow_101_4605" result="shape"/>
</filter>
<linearGradient id="paint0_linear_101_4605" x1="21.6875" y1="9.625" x2="13.625" y2="22.1669" gradientUnits="userSpaceOnUse">
<stop stop-color="white"/>
<stop offset="1" stop-color="#FCFCFD" stop-opacity="0.75"/>
</linearGradient>
<linearGradient id="paint1_linear_101_4605" x1="16" y1="0.5" x2="16" y2="32.5" gradientUnits="userSpaceOnUse">
<stop stop-color="#7EA4FF" stop-opacity="0.27"/>
<stop offset="1" stop-color="#1448C4" stop-opacity="0.42"/>
</linearGradient>
</defs>
</svg>
