<svg width="40" height="41" viewBox="0 0 40 41" fill="none" xmlns="http://www.w3.org/2000/svg">
<rect x="1" y="1.02637" width="38" height="38" rx="19" fill="white"/>
<path fill-rule="evenodd" clip-rule="evenodd" d="M13.2929 13.3193C13.6834 12.9287 14.3166 12.9287 14.7071 13.3193L20 18.6122L25.2929 13.3193C25.6834 12.9287 26.3166 12.9287 26.7071 13.3193C27.0976 13.7098 27.0976 14.3429 26.7071 14.7335L21.4142 20.0264L26.7071 25.3193C27.0976 25.7098 27.0976 26.3429 26.7071 26.7335C26.3166 27.124 25.6834 27.124 25.2929 26.7335L20 21.4406L14.7071 26.7335C14.3166 27.124 13.6834 27.124 13.2929 26.7335C12.9024 26.3429 12.9024 25.7098 13.2929 25.3193L18.5858 20.0264L13.2929 14.7335C12.9024 14.3429 12.9024 13.7098 13.2929 13.3193Z" fill="#23262F"/>
<rect x="1" y="1.02637" width="38" height="38" rx="19" stroke="#E6E8EC" stroke-width="2"/>
</svg>
